<svg id="Capa_1" data-name="Capa 1" xmlns="http://www.w3.org/2000/svg" viewBox="0 0 120.72 207.89"><defs><style>.cls-1{fill:#1976d2;}</style></defs><path class="cls-1" d="M404.48.79a4.77,4.77,0,0,0-4.78,0c-7.65,5-12.59,9.88-17.5,14.79C362,35.8,360.68,58.72,365.88,82l-20.4,20.4A14.58,14.58,0,0,0,342.27,116l9.67,29a7.86,7.86,0,0,0,1.6,2.58,6.64,6.64,0,0,0,9.4,0l20.32-20.32v8.8a9,9,0,0,0,8.85,8.86H412a9,9,0,0,0,8.87-8.87v-8.79l20.32,20.32a6.64,6.64,0,0,0,9.4,0,7.81,7.81,0,0,0,1.6-2.59l9.66-29a14.51,14.51,0,0,0-3.2-13.58L438.25,82c5.14-23.27,3.84-46.28-16.26-66.38C417.07,10.67,412.14,5.73,404.48.79Zm5.44,52.85a11.07,11.07,0,1,1,0-15.66A11.08,11.08,0,0,1,409.92,53.64Z" transform="translate(-341.72 -0.16)"/><path class="cls-1" d="M400.58,208.05a1.11,1.11,0,0,1-1-.6l-7.1-11.81a1.2,1.2,0,0,1-.18-.59,1.29,1.29,0,0,1,.14-.6,1.21,1.21,0,0,1,1-.6h4.72V162.21C393,165.56,384,167.58,384,171.44V175h3.55a1.16,1.16,0,0,1,1.18,1.17V188a1.17,1.17,0,0,1-1.18,1.18H375.78A1.17,1.17,0,0,1,374.6,188V176.15a1.16,1.16,0,0,1,1.18-1.17h3.54v-3.54c0-10,18.89-10.76,18.89-16.53v-13.3a9.46,9.46,0,1,1,4.73,0c0,5.18-1.26,5.82,8,9.89,11.81,5.31,10.88,7.7,10.88,14.43a7.09,7.09,0,1,1-4.75,0v-4c0-3.85-8.93-5.87-14.17-9.22v41.11h4.72a1.2,1.2,0,0,1,1,.59,1.14,1.14,0,0,1,0,1.18l-7.09,11.81a1,1,0,0,1-1,.6Z" transform="translate(-341.72 -0.16)"/></svg>