<svg id="Capa_1" data-name="Capa 1" xmlns="http://www.w3.org/2000/svg" viewBox="0 0 129.79 180.08"><defs><style>.cls-1{fill:#1976d2;}</style></defs><path class="cls-1" d="M456.13,15.59A4.79,4.79,0,0,0,452,13.21c-9.11.46-15.85,2.27-22.56,4.06-27.6,7.4-40.2,26.6-47.34,49.37l-27.87,7.47a14.56,14.56,0,0,0-9.57,10.15l-6.14,30a8,8,0,0,0,.1,3,6.65,6.65,0,0,0,8.14,4.7l27.75-7.44-4.4,7.62a9,9,0,0,0,3.25,12.1l17.26,10a9,9,0,0,0,12.1-3.24l4.4-7.62,7.44,27.77a6.65,6.65,0,0,0,8.14,4.69,7.82,7.82,0,0,0,2.68-1.44l22.86-20.28a14.51,14.51,0,0,0,4-13.36l-7.48-27.92c16.09-17.59,26.47-38.16,19.11-65.62C462.1,30.45,460.29,23.71,456.13,15.59ZM434.42,64.08a11.07,11.07,0,1,1,7.83-13.56A11.06,11.06,0,0,1,434.42,64.08Z" transform="translate(-336.5 -13.21)"/><path class="cls-1" d="M349.12,193.14a1.12,1.12,0,0,1-.56-1l-.24-13.77a1.17,1.17,0,0,1,.14-.61,1.23,1.23,0,0,1,.43-.45,1.2,1.2,0,0,1,1.19,0l4.09,2.35L370,152.25c-6.23.28-15-2.43-16.89.91l-1.77,3.06,3.08,1.78a1.17,1.17,0,0,1,.43,1.61l-5.9,10.23a1.18,1.18,0,0,1-1.62.43l-10.23-5.91a1.17,1.17,0,0,1-.43-1.61l5.91-10.23a1.17,1.17,0,0,1,1.61-.43l3.07,1.77L349,150.8c5-8.66,21.73.13,24.62-4.87l6.65-11.52a9.45,9.45,0,1,1,4.1,2.37c-2.6,4.49-4,4.41,2,12.56,7.57,10.51,5.57,12.12,2.2,17.95a7.09,7.09,0,1,1-4.11-2.37l2-3.43c1.93-3.34-4.8-9.55-7.66-15.07L358.24,182l4.08,2.36a1.19,1.19,0,0,1,.6,1,1.1,1.1,0,0,1-.62,1l-12.05,6.69a1,1,0,0,1-1.13,0Z" transform="translate(-336.5 -13.21)"/></svg>